<?xml version="1.0" encoding="UTF-8" standalone="no"?>
<!DOCTYPE svg PUBLIC "-//W3C//DTD SVG 1.1//EN"
 "http://www.w3.org/Graphics/SVG/1.1/DTD/svg11.dtd">
<!-- Generated by graphviz version 2.40.1 (20161225.0304)
 -->
<!-- Title: state transitions Pages: 1 -->
<svg width="1008pt" height="270pt"
 viewBox="0.00 0.00 1008.00 270.00" xmlns="http://www.w3.org/2000/svg" xmlns:xlink="http://www.w3.org/1999/xlink">
<g id="graph0" class="graph" transform="scale(1 1) rotate(0) translate(4 266)">
<title>state transitions</title>
<polygon fill="#ffffff" stroke="transparent" points="-4,4 -4,-266 1004,-266 1004,4 -4,4"/>
<g id="clust1" class="cluster state regular">
<title>cluster_next_state</title>
<path fill="none" stroke="#000000" stroke-width="2" d="M20,-8C20,-8 980,-8 980,-8 986,-8 992,-14 992,-20 992,-20 992,-242 992,-242 992,-248 986,-254 980,-254 980,-254 20,-254 20,-254 14,-254 8,-248 8,-242 8,-242 8,-20 8,-20 8,-14 14,-8 20,-8"/>
<text text-anchor="start" x="472.8208" y="-235.2" font-family="Helvetica,sans-Serif" font-size="12.00" fill="#000000">next_state</text>
</g>
<!-- next_state -->
<!-- IDLE -->
<g id="node2" class="node state regular">
<title>IDLE</title>
<polygon fill="#ffffff" fill-opacity="0.003922" stroke="transparent" stroke-width="2" points="656,-216 600,-216 600,-180 656,-180 656,-216"/>
<text text-anchor="start" x="614.6644" y="-194.2" font-family="Helvetica,sans-Serif" font-size="12.00" fill="#000000">IDLE</text>
<path fill="none" stroke="#000000" stroke-width="2" d="M612.3333,-181C612.3333,-181 643.6667,-181 643.6667,-181 649.3333,-181 655,-186.6667 655,-192.3333 655,-192.3333 655,-203.6667 655,-203.6667 655,-209.3333 649.3333,-215 643.6667,-215 643.6667,-215 612.3333,-215 612.3333,-215 606.6667,-215 601,-209.3333 601,-203.6667 601,-203.6667 601,-192.3333 601,-192.3333 601,-186.6667 606.6667,-181 612.3333,-181"/>
</g>
<!-- WAIT_LOAD -->
<g id="node3" class="node state regular">
<title>WAIT_LOAD</title>
<polygon fill="#ffffff" fill-opacity="0.003922" stroke="transparent" stroke-width="2" points="725.5,-134 634.5,-134 634.5,-98 725.5,-98 725.5,-134"/>
<text text-anchor="start" x="645.8314" y="-112.2" font-family="Helvetica,sans-Serif" font-size="12.00" fill="#000000">WAIT_LOAD</text>
<path fill="none" stroke="#000000" stroke-width="2" d="M646.8333,-99C646.8333,-99 713.1667,-99 713.1667,-99 718.8333,-99 724.5,-104.6667 724.5,-110.3333 724.5,-110.3333 724.5,-121.6667 724.5,-121.6667 724.5,-127.3333 718.8333,-133 713.1667,-133 713.1667,-133 646.8333,-133 646.8333,-133 641.1667,-133 635.5,-127.3333 635.5,-121.6667 635.5,-121.6667 635.5,-110.3333 635.5,-110.3333 635.5,-104.6667 641.1667,-99 646.8333,-99"/>
</g>
<!-- IDLE&#45;&gt;WAIT_LOAD -->
<g id="edge2" class="edge transition">
<title>IDLE&#45;&gt;WAIT_LOAD</title>
<path fill="none" stroke="#000000" d="M632.438,-179.7297C635.1443,-170.651 639.1711,-159.7754 644.742,-151 646.7557,-147.8279 649.1051,-144.7219 651.6175,-141.7514"/>
<polygon fill="#000000" stroke="#000000" points="654.326,-143.9771 658.5304,-134.2521 649.1791,-139.2326 654.326,-143.9771"/>
<text text-anchor="start" x="644" y="-154" font-family="Helvetica,sans-Serif" font-size="10.00" fill="#000000">loadstore_address_stb_i &#160;&#160;</text>
</g>
<!-- WAIT_STORE -->
<g id="node4" class="node state regular">
<title>WAIT_STORE</title>
<polygon fill="#ffffff" fill-opacity="0.003922" stroke="transparent" stroke-width="2" points="161.5,-134 62.5,-134 62.5,-98 161.5,-98 161.5,-134"/>
<text text-anchor="start" x="73.5" y="-112.2" font-family="Helvetica,sans-Serif" font-size="12.00" fill="#000000">WAIT_STORE</text>
<path fill="none" stroke="#000000" stroke-width="2" d="M74.8333,-99C74.8333,-99 149.1667,-99 149.1667,-99 154.8333,-99 160.5,-104.6667 160.5,-110.3333 160.5,-110.3333 160.5,-121.6667 160.5,-121.6667 160.5,-127.3333 154.8333,-133 149.1667,-133 149.1667,-133 74.8333,-133 74.8333,-133 69.1667,-133 63.5,-127.3333 63.5,-121.6667 63.5,-121.6667 63.5,-110.3333 63.5,-110.3333 63.5,-104.6667 69.1667,-99 74.8333,-99"/>
</g>
<!-- IDLE&#45;&gt;WAIT_STORE -->
<g id="edge1" class="edge transition">
<title>IDLE&#45;&gt;WAIT_STORE</title>
<path fill="none" stroke="#000000" d="M599.907,-197.1909C493.0644,-193.9796 117.1554,-181.4059 99.929,-163 94.9423,-157.6718 94.7125,-150.568 96.5913,-143.5003"/>
<polygon fill="#000000" stroke="#000000" points="99.9007,-144.6454 100.2116,-134.0551 93.3644,-142.14 99.9007,-144.6454"/>
<text text-anchor="start" x="99" y="-154" font-family="Helvetica,sans-Serif" font-size="10.00" fill="#000000">loadstore_address_stb_i &amp;&amp; loadstore_writedata_stb_i &#160;&#160;</text>
</g>
<!-- WAIT_IFETCH -->
<g id="node5" class="node state regular">
<title>WAIT_IFETCH</title>
<polygon fill="#ffffff" fill-opacity="0.003922" stroke="transparent" stroke-width="2" points="848.5,-134 747.5,-134 747.5,-98 848.5,-98 848.5,-134"/>
<text text-anchor="start" x="758.5046" y="-112.2" font-family="Helvetica,sans-Serif" font-size="12.00" fill="#000000">WAIT_IFETCH</text>
<path fill="none" stroke="#000000" stroke-width="2" d="M759.8333,-99C759.8333,-99 836.1667,-99 836.1667,-99 841.8333,-99 847.5,-104.6667 847.5,-110.3333 847.5,-110.3333 847.5,-121.6667 847.5,-121.6667 847.5,-127.3333 841.8333,-133 836.1667,-133 836.1667,-133 759.8333,-133 759.8333,-133 754.1667,-133 748.5,-127.3333 748.5,-121.6667 748.5,-121.6667 748.5,-110.3333 748.5,-110.3333 748.5,-104.6667 754.1667,-99 759.8333,-99"/>
</g>
<!-- IDLE&#45;&gt;WAIT_IFETCH -->
<g id="edge3" class="edge transition">
<title>IDLE&#45;&gt;WAIT_IFETCH</title>
<path fill="none" stroke="#000000" d="M656.0742,-196.1644C685.0388,-193.0943 730.455,-184.8941 763,-163 770.766,-157.7756 777.4704,-150.2361 782.8733,-142.7203"/>
<polygon fill="#000000" stroke="#000000" points="786.0107,-144.3211 788.6036,-134.0484 780.1705,-140.4619 786.0107,-144.3211"/>
<text text-anchor="start" x="776" y="-154" font-family="Helvetica,sans-Serif" font-size="10.00" fill="#000000">instruction_address_stb_i &#160;&#160;</text>
</g>
<!-- current_state -->
<g id="node9" class="node state regular">
<title>current_state</title>
<polygon fill="#ffffff" fill-opacity="0.003922" stroke="transparent" stroke-width="2" points="407,-52 315,-52 315,-16 407,-16 407,-52"/>
<text text-anchor="start" x="325.9906" y="-30.2" font-family="Helvetica,sans-Serif" font-size="12.00" fill="#000000">current_state</text>
<path fill="none" stroke="#ff0000" stroke-width="2" d="M327.3333,-17C327.3333,-17 394.6667,-17 394.6667,-17 400.3333,-17 406,-22.6667 406,-28.3333 406,-28.3333 406,-39.6667 406,-39.6667 406,-45.3333 400.3333,-51 394.6667,-51 394.6667,-51 327.3333,-51 327.3333,-51 321.6667,-51 316,-45.3333 316,-39.6667 316,-39.6667 316,-28.3333 316,-28.3333 316,-22.6667 321.6667,-17 327.3333,-17"/>
</g>
<!-- IDLE&#45;&gt;current_state -->
<g id="edge4" class="edge transition">
<title>IDLE&#45;&gt;current_state</title>
<path fill="none" stroke="#ff0000" d="M599.8505,-195.8316C535.6589,-190.2428 381.5969,-172.9687 350.595,-134 334.4805,-113.7445 340.5261,-83.4016 348.466,-61.4541"/>
<polygon fill="#ff0000" stroke="#ff0000" points="351.7706,-62.6144 352.1746,-52.0273 345.2566,-60.0517 351.7706,-62.6144"/>
<text text-anchor="start" x="350" y="-125" font-family="Helvetica,sans-Serif" font-size="10.00" fill="#ff0000">not (loadstore_address_stb_i &amp;&amp; loadstore_writedata_stb_i) &#160;&#160;</text>
<text text-anchor="start" x="350" y="-113" font-family="Helvetica,sans-Serif" font-size="10.00" fill="#ff0000">not (loadstore_address_stb_i) &#160;&#160;</text>
<text text-anchor="start" x="350" y="-101" font-family="Helvetica,sans-Serif" font-size="10.00" fill="#ff0000">not (instruction_address_stb_i) &#160;&#160;</text>
</g>
<!-- DONE_LOAD -->
<g id="node6" class="node state regular">
<title>DONE_LOAD</title>
<polygon fill="#ffffff" fill-opacity="0.003922" stroke="transparent" stroke-width="2" points="757,-52 661,-52 661,-16 757,-16 757,-52"/>
<text text-anchor="start" x="671.9974" y="-30.2" font-family="Helvetica,sans-Serif" font-size="12.00" fill="#000000">DONE_LOAD</text>
<path fill="none" stroke="#000000" stroke-width="2" d="M673.3333,-17C673.3333,-17 744.6667,-17 744.6667,-17 750.3333,-17 756,-22.6667 756,-28.3333 756,-28.3333 756,-39.6667 756,-39.6667 756,-45.3333 750.3333,-51 744.6667,-51 744.6667,-51 673.3333,-51 673.3333,-51 667.6667,-51 662,-45.3333 662,-39.6667 662,-39.6667 662,-28.3333 662,-28.3333 662,-22.6667 667.6667,-17 673.3333,-17"/>
</g>
<!-- WAIT_LOAD&#45;&gt;DONE_LOAD -->
<g id="edge5" class="edge transition">
<title>WAIT_LOAD&#45;&gt;DONE_LOAD</title>
<path fill="none" stroke="#000000" d="M634.2166,-102.7968C601.1615,-93.212 562.2192,-81.7886 561.63,-81 558.4379,-76.7274 558.3231,-73.1843 561.63,-69 572.8453,-54.8091 614.5625,-45.7629 650.7614,-40.43"/>
<polygon fill="#000000" stroke="#000000" points="651.3779,-43.8779 660.795,-39.0232 650.4059,-36.9457 651.3779,-43.8779"/>
<text text-anchor="start" x="561" y="-72" font-family="Helvetica,sans-Serif" font-size="10.00" fill="#000000">waitrequest_d == 0 &#160;&#160;</text>
</g>
<!-- WAIT_LOAD&#45;&gt;current_state -->
<g id="edge6" class="edge transition">
<title>WAIT_LOAD&#45;&gt;current_state</title>
<path fill="none" stroke="#ff0000" d="M634.472,-101.9258C628.6308,-100.4354 622.7009,-99.0746 617,-98 538.1633,-83.1396 513.3668,-106.4811 437.296,-81 421.4436,-75.69 405.456,-66.5562 392.2401,-57.7446"/>
<polygon fill="#ff0000" stroke="#ff0000" points="394.2024,-54.8463 383.9849,-52.044 390.2248,-60.6064 394.2024,-54.8463"/>
<text text-anchor="start" x="437" y="-72" font-family="Helvetica,sans-Serif" font-size="10.00" fill="#ff0000">not (waitrequest_d == 0) &#160;&#160;</text>
</g>
<!-- DONE_STORE -->
<g id="node7" class="node state regular">
<title>DONE_STORE</title>
<polygon fill="#ffffff" fill-opacity="0.003922" stroke="transparent" stroke-width="2" points="120,-52 16,-52 16,-16 120,-16 120,-52"/>
<text text-anchor="start" x="26.666" y="-30.2" font-family="Helvetica,sans-Serif" font-size="12.00" fill="#000000">DONE_STORE</text>
<path fill="none" stroke="#000000" stroke-width="2" d="M28.3333,-17C28.3333,-17 107.6667,-17 107.6667,-17 113.3333,-17 119,-22.6667 119,-28.3333 119,-28.3333 119,-39.6667 119,-39.6667 119,-45.3333 113.3333,-51 107.6667,-51 107.6667,-51 28.3333,-51 28.3333,-51 22.6667,-51 17,-45.3333 17,-39.6667 17,-39.6667 17,-28.3333 17,-28.3333 17,-22.6667 22.6667,-17 28.3333,-17"/>
</g>
<!-- WAIT_STORE&#45;&gt;DONE_STORE -->
<g id="edge7" class="edge transition">
<title>WAIT_STORE&#45;&gt;DONE_STORE</title>
<path fill="none" stroke="#000000" d="M91.2151,-97.8821C86.4746,-92.8395 81.8821,-87.0678 78.63,-81 75.5179,-75.1933 73.3146,-68.5116 71.7554,-62.0426"/>
<polygon fill="#000000" stroke="#000000" points="75.1828,-61.3326 69.7975,-52.2086 68.3176,-62.6996 75.1828,-61.3326"/>
<text text-anchor="start" x="78" y="-72" font-family="Helvetica,sans-Serif" font-size="10.00" fill="#000000">waitrequest_d == 0 &#160;&#160;</text>
</g>
<!-- WAIT_STORE&#45;&gt;current_state -->
<g id="edge8" class="edge transition">
<title>WAIT_STORE&#45;&gt;current_state</title>
<path fill="none" stroke="#ff0000" d="M148.011,-97.7704C167.8027,-88.2652 193.0005,-76.9884 216.296,-69 244.9129,-59.1868 277.6113,-51.0305 304.6768,-45.0674"/>
<polygon fill="#ff0000" stroke="#ff0000" points="305.7184,-48.4232 314.7538,-42.8904 304.2402,-41.581 305.7184,-48.4232"/>
<text text-anchor="start" x="216" y="-72" font-family="Helvetica,sans-Serif" font-size="10.00" fill="#ff0000">not (waitrequest_d == 0) &#160;&#160;</text>
</g>
<!-- DONE_IFETCH -->
<g id="node8" class="node state regular">
<title>DONE_IFETCH</title>
<polygon fill="#ffffff" fill-opacity="0.003922" stroke="transparent" stroke-width="2" points="940,-52 834,-52 834,-16 940,-16 940,-52"/>
<text text-anchor="start" x="844.6706" y="-30.2" font-family="Helvetica,sans-Serif" font-size="12.00" fill="#000000">DONE_IFETCH</text>
<path fill="none" stroke="#000000" stroke-width="2" d="M846.3333,-17C846.3333,-17 927.6667,-17 927.6667,-17 933.3333,-17 939,-22.6667 939,-28.3333 939,-28.3333 939,-39.6667 939,-39.6667 939,-45.3333 933.3333,-51 927.6667,-51 927.6667,-51 846.3333,-51 846.3333,-51 840.6667,-51 835,-45.3333 835,-39.6667 835,-39.6667 835,-28.3333 835,-28.3333 835,-22.6667 840.6667,-17 846.3333,-17"/>
</g>
<!-- WAIT_IFETCH&#45;&gt;DONE_IFETCH -->
<g id="edge9" class="edge transition">
<title>WAIT_IFETCH&#45;&gt;DONE_IFETCH</title>
<path fill="none" stroke="#000000" d="M817.752,-97.8015C830.0811,-86.4422 846.1264,-71.6588 859.6671,-59.1831"/>
<polygon fill="#000000" stroke="#000000" points="862.3204,-61.4976 867.3032,-52.1476 857.5772,-56.3495 862.3204,-61.4976"/>
<text text-anchor="start" x="848" y="-72" font-family="Helvetica,sans-Serif" font-size="10.00" fill="#000000">waitrequest_d == 0 &#160;&#160;</text>
</g>
<!-- WAIT_IFETCH&#45;&gt;current_state -->
<g id="edge10" class="edge transition">
<title>WAIT_IFETCH&#45;&gt;current_state</title>
<path fill="none" stroke="#ff0000" d="M751.3346,-97.9127C723.9462,-87.9669 688.4462,-76.2169 656,-69 574.0246,-50.7664 476.9839,-41.5682 417.2072,-37.288"/>
<polygon fill="#ff0000" stroke="#ff0000" points="417.4356,-33.7955 407.217,-36.5937 416.9502,-40.7787 417.4356,-33.7955"/>
<text text-anchor="start" x="700" y="-72" font-family="Helvetica,sans-Serif" font-size="10.00" fill="#ff0000">not (waitrequest_d == 0) &#160;&#160;</text>
</g>
<!-- DONE_LOAD&#45;&gt;IDLE -->
<g id="edge11" class="edge transition">
<title>DONE_LOAD&#45;&gt;IDLE</title>
<path fill="none" stroke="#000000" d="M757.2272,-41.8254C777.5213,-45.0637 801.3953,-48.8017 823,-52 850.2957,-56.0408 927.8735,-48.1959 946,-69 949.5036,-73.0211 947.2754,-75.8214 946,-81 936.1589,-120.9573 936.7953,-139.5199 903,-163 883.9675,-176.2233 737.8991,-189.3616 666.7305,-195.0573"/>
<polygon fill="#000000" stroke="#000000" points="666.0828,-191.5975 656.3897,-195.8746 666.6344,-198.5757 666.0828,-191.5975"/>
<text text-anchor="middle" x="942.3895" y="-113" font-family="Helvetica,sans-Serif" font-size="10.00" fill="#000000"> </text>
</g>
<!-- DONE_STORE&#45;&gt;IDLE -->
<g id="edge12" class="edge transition">
<title>DONE_STORE&#45;&gt;IDLE</title>
<path fill="none" stroke="#000000" d="M57.8646,-52.3497C47.8078,-73.2163 35.6952,-107.7837 49.221,-134 59.418,-153.7642 69.7995,-153.6971 90,-163 104.9802,-169.8988 109.6888,-169.5621 126,-172 215.4045,-185.3625 488.8615,-194.1248 589.9314,-196.9815"/>
<polygon fill="#000000" stroke="#000000" points="589.9045,-200.482 599.9983,-197.2625 590.0999,-193.4847 589.9045,-200.482"/>
<text text-anchor="middle" x="50.3895" y="-113" font-family="Helvetica,sans-Serif" font-size="10.00" fill="#000000"> </text>
</g>
<!-- DONE_IFETCH&#45;&gt;IDLE -->
<g id="edge13" class="edge transition">
<title>DONE_IFETCH&#45;&gt;IDLE</title>
<path fill="none" stroke="#000000" d="M935.3888,-52.0823C942.0116,-56.6074 947.9252,-62.1779 952,-69 974.9404,-107.4073 955.6197,-142.2235 916,-163 901.394,-170.6593 896.2437,-169.1465 880,-172 839.952,-179.0352 726.2961,-189.471 666.2517,-194.7253"/>
<polygon fill="#000000" stroke="#000000" points="665.7024,-191.2598 656.0436,-195.6138 666.3094,-198.2334 665.7024,-191.2598"/>
<text text-anchor="middle" x="962.3895" y="-113" font-family="Helvetica,sans-Serif" font-size="10.00" fill="#000000"> </text>
</g>
</g>
</svg>
